<svg id="lines" xmlns="http://www.w3.org/2000/svg" viewBox="0 0 588.3 390.66"><defs><style>.cls-1{fill:none;stroke:#fff;stroke-miterlimit:10;}</style></defs><title>business_gazelle</title><polygon class="cls-1" points="309.14 234.98 356.04 301.19 195.21 301.19 309.14 234.98"/><polygon class="cls-1" points="356.04 301.19 485.45 281.24 309.14 234.98 356.04 301.19"/><polygon class="cls-1" points="397.3 258.11 446.75 189.26 485.45 281.24 397.3 258.11"/><polygon class="cls-1" points="397.3 258.11 372.43 223.69 309.14 234.98 397.3 258.11"/><polygon class="cls-1" points="372.43 223.69 397.3 258.11 446.75 189.26 372.43 223.69"/><polygon class="cls-1" points="372.43 223.69 400.56 206.6 425.45 198.7 372.43 223.69"/><polygon class="cls-1" points="485.45 281.24 477.04 154.57 458.81 217.91 485.45 281.24"/><polygon class="cls-1" points="477.04 154.57 451.73 198.7 458.81 217.91 477.04 154.57"/><polygon class="cls-1" points="451.73 198.7 447.85 190 465.83 172.94 451.73 198.7"/><polygon class="cls-1" points="533.56 181.91 504.5 105.12 477.04 154.57 533.56 181.91"/><polygon class="cls-1" points="477.04 154.57 533.56 181.91 480.25 202.88 477.04 154.57"/><polygon class="cls-1" points="485.45 281.24 502.83 194.19 480.25 202.88 485.45 281.24"/><polygon class="cls-1" points="502.83 194.19 527.63 185.04 492.02 248.32 502.83 194.19"/><polygon class="cls-1" points="505.51 105.36 515.53 81.74 518.94 103.19 505.51 105.36"/><polygon class="cls-1" points="515.53 81.74 507.13 73.18 502.43 83.85 515.53 81.74"/><polygon class="cls-1" points="502.43 83.85 505.51 105.36 515.53 81.74 502.43 83.85"/><polygon class="cls-1" points="517.98 104.07 517.02 138.19 504.5 105.12 517.98 104.07"/><polygon class="cls-1" points="517.02 138.19 533.95 106.14 517.98 104.07 517.02 138.19"/><polygon class="cls-1" points="517.02 138.19 564.77 131.53 550.16 154.57 533.47 180.91 517.02 138.19"/><polygon class="cls-1" points="585.7 183.77 547.53 158.73 533.56 181.91 545.03 182.32 585.7 183.77"/><polygon class="cls-1" points="568.02 190.03 585.7 183.77 542.01 181.95 568.02 190.03"/><polygon class="cls-1" points="563.79 131.7 585.7 183.77 547.53 158.73 563.79 131.7"/><polygon class="cls-1" points="585.7 183.77 586.78 172.74 573.05 153.72 585.7 183.77"/><polygon class="cls-1" points="533.95 106.14 564.77 131.53 517.02 138.19 533.95 106.14"/><polygon class="cls-1" points="533.95 106.14 547.17 73.18 563.79 131.7 533.95 106.14"/><polygon class="cls-1" points="533.95 106.14 517.13 51.84 547.17 73.18 533.95 106.14"/><polygon class="cls-1" points="517.13 51.84 485.69 39.66 525.39 78.52 517.13 51.84"/><polygon class="cls-1" points="492.12 47.15 525.39 78.52 532.18 104.91 492.12 47.15"/><polygon class="cls-1" points="485.69 39.66 471.44 23.19 503.25 46.46 485.69 39.66"/><polygon class="cls-1" points="470.2 22.29 469.14 5.37 481.15 29.33 470.2 22.29"/><polygon class="cls-1" points="517.13 51.84 494.08 14.78 525.91 43.53 517.13 51.84"/><polygon class="cls-1" points="525.91 43.53 545.5 70.56 517.13 51.84 525.91 43.53"/><polygon class="cls-1" points="494.08 14.78 493.85 2.64 500.9 19.66 494.08 14.78"/><polygon class="cls-1" points="485.45 281.24 524.2 321.55 554.28 314.12 485.45 281.24"/><polygon class="cls-1" points="485.45 281.24 523.9 291.56 554.28 314.12 485.45 281.24"/><polygon class="cls-1" points="554.28 314.12 537.01 342.17 524.2 321.55 554.28 314.12"/><polygon class="cls-1" points="554.28 314.12 562.98 318.41 537.01 342.17 554.28 314.12"/><polygon class="cls-1" points="537.01 342.17 562.62 333.06 562.98 318.41 537.01 342.17"/><polygon class="cls-1" points="524.2 321.55 513.58 333.07 537.01 342.17 524.2 321.55"/><polygon class="cls-1" points="513.58 333.07 491.54 356.31 537.01 342.17 513.58 333.07"/><polygon class="cls-1" points="491.54 356.31 485.27 342.53 513.58 333.07 491.54 356.31"/><polygon class="cls-1" points="491.54 356.31 459.31 344.44 464.77 362.54 491.54 356.31"/><polygon class="cls-1" points="459.31 344.44 491.54 356.31 475.92 346.8 459.31 344.44"/><polygon class="cls-1" points="475.92 346.8 485.27 342.53 491.54 356.31 475.92 346.8"/><polygon class="cls-1" points="459.31 344.44 437.53 361.97 464.77 362.54 459.31 344.44"/><polygon class="cls-1" points="356.04 301.19 368.21 335.71 485.45 281.24 356.04 301.19"/><polygon class="cls-1" points="485.45 281.24 482.88 311.78 426.83 308.48 485.45 281.24"/><polygon class="cls-1" points="524.2 321.55 485.45 281.24 482.88 311.78 524.2 321.55"/><polygon class="cls-1" points="368.21 335.71 426.83 308.48 451.3 310.32 368.21 335.71"/><polygon class="cls-1" points="356.04 301.19 277.51 321.75 368.21 335.71 356.04 301.19"/><polygon class="cls-1" points="277.51 321.75 195.21 301.19 356.04 301.19 277.51 321.75"/><polygon class="cls-1" points="195.21 301.19 193 333.78 277.51 321.75 195.21 301.19"/><polygon class="cls-1" points="277.51 321.75 248.13 334.93 193 333.78 277.51 321.75"/><polygon class="cls-1" points="195.21 301.19 212.06 231.87 309.14 234.98 195.21 301.19"/><polygon class="cls-1" points="195.21 301.19 169.06 282.54 212.06 231.87 195.21 301.19"/><polygon class="cls-1" points="177.53 271.21 185.47 241.1 212.06 231.87 177.53 271.21"/><polygon class="cls-1" points="291.69 233.2 206.49 215.06 212.06 231.87 291.69 233.2"/><polygon class="cls-1" points="206.49 215.06 128.96 226.66 207.34 224.14 206.49 215.06"/><polygon class="cls-1" points="195.21 301.19 132.24 313.58 169.06 282.54 195.21 301.19"/><polyline class="cls-1" points="193 333.78 148.5 332.3 195.21 301.19 148.5 332.3 132.24 313.58 112.53 334.6 148.5 332.3"/><polygon class="cls-1" points="112.53 334.6 105.76 361.46 148.5 332.3 112.53 334.6"/><polygon class="cls-1" points="105.76 361.46 77.15 366.72 112.53 334.6 105.76 361.46"/><polygon class="cls-1" points="77.15 366.72 77.2 387.35 105.76 361.46 77.15 366.72"/><polygon class="cls-1" points="77.2 387.35 44.54 390 70.61 373.52 77.15 366.72 77.2 387.35"/><polygon class="cls-1" points="69.98 373.91 53.43 371.67 45.23 388.97 69.98 373.91"/><polygon class="cls-1" points="132.24 313.58 124.79 280.44 169.06 282.54 132.24 313.58"/><polygon class="cls-1" points="124.79 280.44 104.06 310.55 132.24 313.58 124.79 280.44"/><polygon class="cls-1" points="104.06 310.55 83.37 302.22 124.79 280.44 104.06 310.55"/><polygon class="cls-1" points="83.37 302.22 53.73 334.33 104.06 310.55 83.37 302.22"/><polygon class="cls-1" points="53.73 334.33 48.65 321.03 83.37 302.22 53.73 334.33"/><polygon class="cls-1" points="48.65 321.03 3.73 333.06 53.73 334.33 48.65 321.03"/><polygon class="cls-1" points="3.73 333.06 28.43 340.44 53.73 334.33 3.73 333.06"/><polygon class="cls-1" points="3.73 333.06 15.36 322.13 27.14 326.79 3.73 333.06"/></svg>