<svg id="lines" xmlns="http://www.w3.org/2000/svg" viewBox="0 0 585.62 398.82"><defs><style>.cls-1{fill:#f47400;}.cls-1,.cls-2{stroke:#fff;stroke-miterlimit:10;}.cls-2{fill:none;}</style></defs><title>creative_gazelle</title><polygon class="cls-1" points="40.76 398.3 39.35 395.25 40.26 394.83 41.38 397.27 72.27 395.49 74.04 394.62 86.56 383.78 120.74 351.72 129.43 344.59 139.63 340.48 145.34 339.56 161.21 339.79 178.01 340.6 194.11 341.2 244.98 342.2 251.99 341.43 261.18 338.96 262.85 337.15 267.05 333.87 271.36 329.78 274.35 329.02 278.37 330.07 301.71 338.1 324.47 342.61 348.81 344.02 368.24 342.77 386.98 339.69 418.92 330.52 424.76 328.13 432.41 323.79 440.21 319.7 448.14 317.59 454.39 316.98 465.63 317.38 479.72 319.05 505.51 322.61 521.04 328.82 510.43 340.34 510.3 340.38 483.36 349.13 482.12 349.79 480.31 351.31 477.18 353.16 472.76 354.07 472.67 354.05 458.15 351.24 456.15 351.71 454.42 352.65 434.37 369.24 442.07 371.88 444.97 372.4 452.08 372.45 456.98 371.39 461.62 369.81 482.82 365.17 511.47 356.96 550.24 343.93 551.53 343.07 554.77 341.89 558.65 339.64 560.17 335.5 561.01 329.56 559.82 325.68 557.32 322.7 553.96 321.33 551.13 321.38 534.44 308.11 532.83 307.11 520.75 298.83 505.9 292.81 499.37 291.35 492.3 290.45 483.98 290.06 481.17 289.22 483.67 273.63 486.94 261.97 490.74 252.59 497 241.35 506.04 227.51 518.39 201.25 523.8 191.56 527.96 188.67 530.31 188.18 533.5 188.23 538.85 189.22 564.86 197.29 574.08 195.97 577.79 194.03 581.8 190.35 583.9 186.68 584.11 181.49 583.63 180 581.44 176.2 571.64 162.86 565.35 151.26 560.63 138.96 560.27 135.39 559.43 131.8 551.87 102.52 547.62 89.93 543.15 80.94 528.32 57.75 522.75 50.8 503.51 34.37 498.83 29.1 494.64 22.17 492.08 13.44 491.73 7.62 490.69 9.9 489.82 14.66 489.89 17.91 491.67 25.02 493.37 28.73 496.29 33.59 513.97 59.11 499.37 51.53 498.05 49.81 497.2 47.14 495.12 45 490.06 42.92 474.34 29.45 472.79 27.31 465.98 12.63 465.67 13.83 465.24 18.8 465.92 24.29 469.25 32.27 505.23 71.98 517.26 87.17 530.79 113.41 514.82 111.34 514.29 98.38 512.38 89.01 503.97 80.45 502.51 82.73 500.42 87.17 499.27 91.12 498.86 95.42 499.12 98.43 500.43 103.01 502.12 107.42 502.35 112.63 498.21 120.06 493.45 126.61 486.09 139.63 480.36 150.33 473.88 161.84 462.68 180.21 457.34 186.79 453.73 191.44 450.71 194.57 448.09 196.33 443.69 197.54 439.58 197.18 438.56 197.65 436.48 199.73 432.33 203.04 427.27 205.5 422.53 206.94 414.54 208.6 406.74 210.51 397.4 213.86 391.29 217.02 385.84 220.48 383.52 223.3 382.75 222.66 385.24 219.68 390.79 216.16 397 212.95 406.45 209.56 414.32 207.62 422.29 205.97 426.91 204.57 431.84 202.17 435.82 198.98 438.06 196.78 439.4 196.16 443.6 196.53 447.75 195.39 450.11 193.77 452.98 190.78 456.56 186.17 461.86 179.63 473.02 161.33 479.49 149.85 485.21 139.15 492.61 126.06 497.37 119.52 501.34 112.39 501.12 107.54 499.48 103.33 498.14 98.61 497.86 95.41 498.29 90.93 499.49 86.81 501.64 82.25 503.8 78.85 513.3 88.52 515.28 98.26 515.79 110.46 529.03 112.17 516.42 87.71 504.47 72.63 468.4 32.81 464.93 24.48 464.24 18.82 464.69 13.66 465.72 9.69 473.64 26.81 475.11 28.81 490.64 42.11 495.77 44.23 498.09 46.61 498.98 49.42 500.09 50.83 510.87 56.38 495.45 34.13 492.49 29.2 490.73 25.35 488.9 17.99 488.82 14.58 489.75 9.54 492.94 2.56 492.71 7.37 493.07 13.32 495.58 21.83 499.64 28.5 504.21 33.66 523.47 50.11 529.13 57.16 544.02 80.45 548.54 89.55 552.83 102.23 560.4 131.56 561.25 135.23 561.62 138.79 566.26 150.84 572.48 162.33 582.28 175.66 584.56 179.65 585.12 181.35 584.9 186.96 582.54 191.04 578.32 194.88 574.3 196.95 564.78 198.31 538.61 190.19 533.4 189.22 530.4 189.18 528.27 189.63 524.47 192.31 519.28 201.7 506.91 228 497.85 241.87 491.64 253.02 487.89 262.29 484.64 273.84 482.29 288.51 484.21 289.08 492.39 289.45 499.54 290.36 506.2 291.86 521.27 297.98 533.38 306.27 535.01 307.29 551.47 320.38 554.15 320.33 557.93 321.87 560.74 325.29 562.03 329.48 561.13 335.79 559.46 340.32 555.2 342.79 551.93 343.99 550.63 344.85 511.76 357.91 483.06 366.14 461.88 370.77 457.25 372.36 452.13 373.45 444.88 373.4 441.82 372.84 432.36 369.61 453.87 351.82 455.85 350.75 458.13 350.22 458.23 350.24 472.76 353.05 476.89 352.2 479.74 350.5 481.6 348.93 482.97 348.21 509.87 339.47 519.32 329.21 505.19 323.56 479.6 320.04 465.56 318.38 454.42 317.98 448.31 318.57 440.53 320.65 432.89 324.67 425.2 329.03 419.25 331.46 387.19 340.67 368.36 343.76 348.81 345.02 324.34 343.6 301.45 339.06 278.08 331.03 274.35 330.05 271.86 330.68 267.7 334.62 263.52 337.88 261.72 339.85 252.17 342.41 245.02 343.19 194.08 342.2 177.97 341.6 161.18 340.78 145.41 340.56 139.84 341.46 129.87 345.49 121.4 352.47 87.23 384.53 74.54 395.49 72.42 396.49 40.76 398.3"/><polyline class="cls-2" points="383.52 223.3 369.27 230.96 351.37 235.01 331.4 238.26 305.98 242.25 299.53 242.25 271.46 238.01 203.33 222.33 198.4 221.87 186.88 221.87 131.35 231.94 125.81 233.92 132.27 235.91 143.63 236.66 166.65 233.51 197.22 230.35 204.18 231.4 208.9 239.14 200.22 241.19 189.09 244.89 182.32 248.37 179.6 254.54 177.03 261.37 176.22 268.45 174.37 278.48 170.32 286.05 165.9 289.8 157.56 292.86 149.04 293.69 144.06 293.08 131 288.58 121.63 287.71 113.32 289.46 101.04 296.68 68.08 316.94 43.07 329.51 25.71 334.62 20.58 332.94 16.24 329.79 12.21 329.4 9.38 330.69 0.58 340.32 1.26 342.11 9.44 344.39 25.27 347.71 35.98 347.4 42.58 345.57 80.38 326.78 91.25 321.11 100.91 317.81 112.28 316.64 129.08 320.84 93.75 358.54 88.64 362.93 80.41 368.89 73.99 373.99 69.97 378.23 67.45 380.79 61.65 383.14 55.13 383.89 51.31 385.41 42.12 393.09 39.8 395.04"/></svg>