<svg id="Capa_1" data-name="Capa 1" xmlns="http://www.w3.org/2000/svg" viewBox="0 0 584.33 392.66"><defs><style>.cls-1{fill:#fcfcfc;}</style></defs><title>full_gazelle</title><path class="cls-1" d="M569.13,249.6c-3.38-5.77-5.67-12.2-8.17-18.45-.78-1.92-.47-4.25-1-6.31-3.48-13.46-6.39-27.12-10.87-40.25-2.85-8.35-7.72-16.11-12.34-23.74A154,154,0,0,0,523,141.64c-3.21-3.81-7.63-6.63-11.57-9.81-11-8.9-20.94-18.44-19.64-36-5,8.24-3.71,17.56,2.92,27.78,5.07,7.81,10.58,15.34,17.18,24.84-6-3.46-13.48-5.4-14-8.52-1-6-6-5.06-8.53-7-16.23-12.64-16.5-12.29-24-31-2.52,7.6-.72,17.63,5,23.95,8.77,9.8,18,19.21,26.78,29,12.8,14.25,25.55,28.58,32.33,48.69l-14.61-1.9c0-11.81.09-23.32-11.47-31.28-5.47,8.31-7.29,16.17-3.39,24.67,2.74,6,2.12,9.75-2.67,15.53-7.69,9.28-12.41,21-18.6,31.58-6.87,11.71-12.69,24.44-21.6,34.36-3.78,4.21-8,13.3-17.45,10.9-.76-.2-2.11.6-2.72,1.33C429,298,417.32,297.34,407,300.44c-7.49,2.25-15.67,5.19-21.15,10.36-8.73,8.23-18.4,12.39-29.84,14.11-16.89,2.54-33.71,5.63-50.62,8-4.4.63-9.09,0-13.55-.71-11.26-1.79-22.53-3.64-33.67-6-16.86-3.62-33.91-6.78-50.3-12-10.26-3.25-19.5-1.09-29.13.39-16,2.45-32,5.28-48,8-1.44.24-2.8,1-5.55,2,12.07,4.94,22.6,2.25,33.28.66,12.64-1.9,25.39-3.24,38.14-4.23,7-.55,9.29,1.56,11.68,8.78-3.58.83-7.09,1.81-10.66,2.44-12.26,2.2-21.06,11.58-21.81,24.12-.7,11.57-3.08,22.5-15.5,26.3-6.15,1.88-14.25,2.6-19.81.12-14.82-6.61-26.16-6.49-40.08,4.56-16,12.74-35.5,21.3-53.85,31-6.58,3.46-14.22,5-21.48,7-1.48.41-4-.5-5.13-1.67-7.33-7.48-12-2.2-16.8,3.16C2,428.18,1,429.73,0,431c.31.86.39,1.71.68,1.79,14.28,3.81,28.58,9.45,43.36,2.6,12.1-5.6,24.31-11.16,35.76-17.94,15.13-9,30.27-14.42,48.7-5.93-11.7,12.59-23,25.61-35.33,37.7-7.33,7.2-17.52,11.81-23.78,19.68-4.84,6.09-9.23,4.58-14.84,5.67s-10.26,7.22-15.33,11.15c.43.91.85,1.83,1.27,2.74,10.21-.61,20.46-.89,30.61-2.05,2.84-.32,5.67-2.94,8-5.06,14.07-12.82,28.63-25.18,41.73-38.93,9.74-10.22,20.45-12.57,33.9-11.79,29.38,1.71,58.84,2.49,88.27,2.75,9.58.09,19.19-2.88,26-10.7,3.32-3.84,6.32-2.44,9.93-.94,47.48,19.58,94.9,16.54,142.07-1,7.65-2.84,14.26-8.89,22-11,7.45-2,15.89-1.95,23.67-1,12.7,1.54,25.5,2.9,38.1,5l14.72,5.83.14.11-9,9.54a9,9,0,0,0-1,1.35c-6.79,2.35-13.84,4.3-20.53,6.8-2.9,1.08-6.55,1.35-8.58,3.31-5.5,5.3-11.73,3.6-17.2,1.75-4.38-1.49-7.31-1.72-10.79,1.33-6.08,5.32-12.43,10.34-19.69,16.33,9.9,4.32,17.4,4.91,25.88,1.73,8-3,16.88-3.68,25.24-5.89,22-5.82,43.15-12.8,64.61-20.26a9,9,0,0,0,2.61-1.46,11.29,11.29,0,0,0,6.33-3.63,14.15,14.15,0,0,0,3.55-8.38,12,12,0,0,0-1.74-6.87,8.21,8.21,0,0,0-8.54-3.78l-15.17-12.22a11.31,11.31,0,0,0-2.49-1.52c-13.85-11.77-29.92-17.58-48.49-17.45a13.5,13.5,0,0,1-3.42-.83c2-19.24,7.35-36.36,19.05-52.06,8.3-11.15,12.67-25.2,19-37.86,5.14-10.34,8.37-11.91,19.67-9.07,7.94,2,15.58,5.37,23.59,6.92,4.47.86,10.4.73,13.94-1.59,6-4,11-10,5.66-18.13C577.93,261.6,572.87,256,569.13,249.6Z" transform="translate(0 -95.83)"/></svg>