<svg id="copy" xmlns="http://www.w3.org/2000/svg" viewBox="0 0 536.5 530.16"><defs><style>.cls-1{fill:#fff;}</style></defs><title>logo_low_poly_white_new</title><path class="cls-1" d="M812.5,755l.2-.48,13.94-33.71c4.67-11.17,9.47-22.31,14.34-33.53l.52.79-29-.17.4-.4-.25,33.87C812.57,732.54,812.51,743.77,812.5,755Zm0,1v-.52c0-11.27-.07-22.54-.15-33.87l-.25-34.13v-.4h.4l29-.17h.86l-.34.79c-4.8,11.44-9.66,23-14.66,34.47Z" transform="translate(-543.75 -227.3)"/><path class="cls-1" d="M841.5,687c2.59,4.87,5.25,9.78,7.86,14.77,2.69,5.15,5.26,10.34,7.76,15.46l.19.39-.26.33-15.18,19.87-.85,1.1,0-1.38.28-25.14c.1-8.34.16-16.6.18-24.86Zm0,1c0,8.24.08,16.48.18,24.65L842,737.5l-.83-.28L856,717.09l-.07.72c-2.5-4.88-4.93-9.69-7.24-14.54s-4.57-9.81-6.91-14.8Z" transform="translate(-543.75 -227.3)"/><path class="cls-1" d="M841.49,738.53q-14.26,8.88-28.58,17.64l-2.12,1.29,1-2.27,29.43-67.81.62-1.43v1.55l-.32,50Zm0-2-.31-49,.61.12-28.57,68.19-1.13-1q14.28-9,28.54-17.82Z" transform="translate(-543.75 -227.3)"/><path class="cls-1" d="M840.91,687.5l-.25-.54c-9.72-20.68-19.22-41.29-28.68-62.22l1.09-.24-.39,63-.18-.18Zm1.18,0h-.59l-29,.18h-.18v-.18l-.39-63,0-2.59,1.11,2.35C822.81,645.15,832.56,666.36,842.09,687.5Z" transform="translate(-543.75 -227.3)"/><path class="cls-1" d="M841.26,687l.36-.46C858,665.57,874.32,644.87,891,624.1l.51,1-79-.35.28-.43Zm.49,1.06-.25-.53-29.28-62.87-.19-.43h.47l79-.35h1.34l-.83,1C875.47,646,858.6,667.12,841.75,688Z" transform="translate(-543.75 -227.3)"/><path class="cls-1" d="M841.81,687.11l.46-.25,24.4-13.18c8.09-4.33,16.25-8.54,24.52-12.78l-.37.6.22-37,.82.29L866.73,656Q854.26,671.46,841.81,687.11Zm-.64.8.33-.41q12.42-15.68,24.77-31.5l24.87-31.79.82-1v1.33l.22,37v.41l-.37.19c-8.4,4.43-16.9,8.88-25.48,13.22Z" transform="translate(-543.75 -227.3)"/><path class="cls-1" d="M842,687.26l.53.15c4.28,1.19,8.52,2.33,12.69,3.53s8.33,2.48,12.54,3.81l-.87.3,24.27-33.81.58.66C875.27,670.29,858.64,678.64,842,687.26Zm-1,.5.49-.26c16.5-8.63,33-17.53,49.79-26.4l1.64-.86-1.06,1.52L868.14,696l-.32.46-.55-.16c-4.46-1.33-9-2.72-13.46-4.19C849.49,690.65,845.22,689.19,841,687.76Z" transform="translate(-543.75 -227.3)"/><path class="cls-1" d="M868.12,695.7c-3.55,7.41-7.24,14.87-11,22.12l-.66,1.27-.62-1.27-14.65-30.18-.32-.67.7.23,25.91,8.3Zm-1.24-.38-25.47-7.52.38-.44,15.35,29.82h-1.28c3.49-7.22,7-14.23,10.72-21.29Z" transform="translate(-543.75 -227.3)"/><path class="cls-1" d="M848.29,624.5v-.71c.08-24.74.28-49.43.58-74.29l1.17.27-37.38,74.81-.17-.27Zm1.42,0H849l-36.5.19h-.3l.13-.27L849,549.23l1.17-2.41v2.68C850.09,574.41,850,599.48,849.71,624.5Z" transform="translate(-543.75 -227.3)"/><path class="cls-1" d="M849.5,548.93l23,15.72q11.76,8.08,23.36,16.27l.72.5-.64.6-46.23,42.76-.65.61v-.89l.39-75Zm0,1.13.39,74.44-.65-.28L895,581l.08,1.1c-7.61-5.23-15.15-10.45-22.64-15.73l-22.49-16Z" transform="translate(-543.75 -227.3)"/><path class="cls-1" d="M895.9,581.13c-.54,7.1-1.06,14.26-1.65,21.45-.62,7.37-1.32,14.72-2,22l-.07.64h-.64l-42-.28h-1.08l.79-.73c15.54-14.34,31-28.49,46.29-42.69Zm-.78.73c-15.29,14.35-30.33,28.74-45.33,42.95l-.29-.74,42-.28-.71.64c.61-7.06,1.24-14,2-21s1.53-14,2.31-21Z" transform="translate(-543.75 -227.3)"/><path class="cls-1" d="M895.05,581.18l0-.55c-.77-9.88-1.54-19.7-2.23-29.52s-1.32-19.66-1.92-29.57l1,.49-42.16,27.75v-.56Zm.91.64-.46-.32-46.19-31.72-.41-.28.41-.28L891.15,521l.91-.62.08,1.11c.73,10.09,1.45,20.25,2.08,30.43Z" transform="translate(-543.75 -227.3)"/><path class="cls-1" d="M849.24,550h-.59c-12.15.23-24,.37-36.15.28l.81-.81-.38,75-.81-.19Zm.52-1-.26.53-36.62,75.19-.8,1.64V624.5l-.38-75v-.8h.82C824.86,548.6,837.43,548.75,849.76,549Z" transform="translate(-543.75 -227.3)"/><path class="cls-1" d="M849.5,580.79c15.34-.1,30.74-.1,46,0l1.77,0L896,582l-46.29,42.7-.48.44v-.65l.28-43Zm0,1.41.28,42.3-.47-.21L895,581l.48,1.21c-15.17.11-30.2.11-45.29,0Z" transform="translate(-543.75 -227.3)"/><path class="cls-1" d="M848.92,549.5l-.28-.51-18.43-32.5q-9.15-16.26-18.21-32.71l1.08-.28-.37,66-.21-.21Zm1.16,0h-.58l-37,.21h-.21v-.21l-.37-66v-2.2l1.09,1.92q9.4,16.54,18.79,33.29Z" transform="translate(-543.75 -227.3)"/><path class="cls-1" d="M891.23,521.05l.1-.54c.86-4.43,1.68-8.8,2.58-13.13s1.87-8.65,2.89-13l.5.85-27.92-8.28.48-.63C876.91,497.74,883.94,509.38,891.23,521.05Zm.57.92-.3-.47c-7.29-11.52-14.83-23.05-22.36-34.78l-.59-.92,1.07.29,28.08,7.72.64.18-.14.67c-1,4.61-2,9.29-3.11,14C894,513.12,892.9,517.57,891.8,522Z" transform="translate(-543.75 -227.3)"/><path class="cls-1" d="M849.05,549.8c3.2-10.48,6.4-21,9.7-31.56,3.34-10.7,6.77-21.35,10.2-31.92l.38-1.19.66,1.06,21.78,35.14.17.27-.26.17c-14.16,9.31-28.27,18.48-42.18,27.73Zm.88-.59c13.94-9.33,27.69-18.72,41.39-28l-.09.44L869,486.81l1-.13c-3.24,10.43-6.47,20.78-9.8,31.08s-6.73,20.59-10.15,30.94Z" transform="translate(-543.75 -227.3)"/><path class="cls-1" d="M849.24,549l.16-.52L859,517.35c3.23-10.34,6.54-20.66,9.89-31.05l.6.87-57-3.29.35-.57Zm.53,1-.27-.48-37.33-65.81-.34-.6.69,0,57,2.71.86,0-.25.83c-3.31,10.61-6.67,21.29-10.11,31.95Z" transform="translate(-543.75 -227.3)"/><path class="cls-1" d="M891.61,521l.32-.4,36.9-47.33q18.48-23.56,37.27-47.08l.76.67-69.28,67.72,0-.06Zm-.22,1,.11-.5,5.89-27v0l0,0,68.72-68.28.76.67q-18.72,23.93-37.73,47.92Z" transform="translate(-543.75 -227.3)"/><path class="cls-1" d="M895.47,581l.13-.5,12.47-48.62c4.19-16.14,8.54-32.28,12.93-48.51l.91.45-30.19,37.86.07-.2,1.81,29.92Zm.07,1,0-.51-2.1-29.9-2.19-30.08v-.11l.07-.09,29.81-38.14,1.54-2-.63,2.41c-4.28,16.43-8.6,33-13.07,49.49Z" transform="translate(-543.75 -227.3)"/><path class="cls-1" d="M921.64,483l10.28,18.74c3.5,6.47,6.92,13,10.27,19.43l.25.48-.36.4-42.8,46.78L898,570.18l.49-1.8,11.57-42.55L921.5,483.5Zm-.27,1-11,42.16-11,42.45-.78-.42L940.92,521l-.11.88c-3.31-6.21-6.56-12.37-9.73-18.57l-9.47-18.8Z" transform="translate(-543.75 -227.3)"/><path class="cls-1" d="M941.25,521l.14-.52,12.11-47.09q6.12-23.49,12.48-47.06l.94.48-45.26,56.78,0-.21Zm.5,1-.25-.48-20.18-37.91-.06-.11.08-.1,44.74-57.21,1.59-2.05-.65,2.52q-6.16,23.89-12.52,47.94Z" transform="translate(-543.75 -227.3)"/><path class="cls-1" d="M955.68,467.84c18.38,5.89,36.8,11.91,55,18l1.59.53-1.5.75-69.18,34.64-.58.29.17-.62L955.5,468.5Zm-.35,1.32-13.55,52.41-.41-.33,68.82-35.36.09,1.28c-18.21-5.84-36.23-11.74-54.3-17.78Z" transform="translate(-543.75 -227.3)"/><path class="cls-1" d="M1010.19,486.07l.06-.54,5.15-45.06q2.64-22.47,5.5-45l.89.59-55.13,30.76.1-.47Zm.63.86-.32-.43-44.26-59.81-.22-.29.32-.18L1021.21,395l1-.59-.13,1.18q-2.67,22.9-5.5,46Z" transform="translate(-543.75 -227.3)"/><path class="cls-1" d="M1010,486.34l-.32-.43-22-29.41c-7.26-9.8-14.45-19.69-21.67-29.66l1-.19-11.24,41.93-.22-.39C973.62,474.19,991.73,480.33,1010,486.34Zm1,.33-.51-.17c-18.22-5.94-36.62-11.75-55.1-17.69l-.3-.09.08-.3,10.76-42.07.3-1.17.72,1q11.17,15,22.33,30.34Z" transform="translate(-543.75 -227.3)"/><path class="cls-1" d="M1010.57,486l.4-.36,21.93-19.47c7.31-6.44,14.68-12.8,22.13-19.19l-.13.93-33.76-52.15.79-.19C1018.16,425.54,1014.27,455.67,1010.57,486Zm-.13,1.06.06-.54c3.61-30.18,7-60.55,10.57-91.05l.14-1.17.65,1,34.24,51.85.35.52-.48.41c-7.55,6.61-15.18,13.25-22.87,19.82Z" transform="translate(-543.75 -227.3)"/><path class="cls-1" d="M1055.19,447l.23-.53,9.08-21.2c3.06-7,6.18-14,9.35-21.09l.53,1-52.94-9.32.38-.59Zm.63,1-.32-.48-34.32-51.79-.48-.73.86.14,53.06,8.68.9.15-.37.84q-4.74,10.92-9.65,21.91Z" transform="translate(-543.75 -227.3)"/><path class="cls-1" d="M1021,395.41c9.57-2.45,19.2-5,28.9-7.38,9.86-2.47,19.72-4.8,29.49-7.08l.88-.2-.2.87-5.17,23-.08.37-.37-.06-26.58-4.76c-8.82-1.59-17.58-3.13-26.35-4.63Zm1,.17q13.11,2.21,26.16,4.29l26.42,4.24-.45.31,4.83-23,.68.67c-9.56,2.38-19,4.72-28.51,6.92s-19,4.32-28.62,6.5Z" transform="translate(-543.75 -227.3)"/><path class="cls-1" d="M811.5,756l-14.86-33.83c-5-11.5-9.86-23-14.66-34.47l-.34-.79h.86l29,.17h.4v.4l-.25,34.13c-.08,11.33-.14,22.6-.15,33.87Zm0-1c0-11.23-.07-22.46-.15-33.63l-.25-33.87.4.4-29,.17.52-.79c4.87,11.22,9.67,22.36,14.34,33.53l13.94,33.71Z" transform="translate(-543.75 -227.3)"/><path class="cls-1" d="M782.5,688l-.23.48c-2.34,5-4.6,9.94-6.91,14.8s-4.74,9.66-7.24,14.54l-.07-.72,14.82,20.13-.83.28.28-24.86C782.42,704.47,782.48,696.23,782.5,688Zm0-1v.54c0,8.26.08,16.52.18,24.86L783,737.5l0,1.38-.85-1.1L767,717.91l-.26-.33.19-.39c2.5-5.12,5.07-10.31,7.76-15.46C777.25,696.74,779.91,691.83,782.5,687Z" transform="translate(-543.75 -227.3)"/><path class="cls-1" d="M782.51,736.48l.86.53q14.29,8.85,28.54,17.82l-1.13,1-28.57-68.19.61-.12Zm0,2v-1l-.32-50V686l.62,1.43,29.43,67.81,1,2.27-2.12-1.29Q796.81,747.43,782.51,738.53Z" transform="translate(-543.75 -227.3)"/><path class="cls-1" d="M781.91,687.5c9.53-21.14,19.28-42.35,29.07-63.24l1.11-2.35,0,2.59-.39,63v.18h-.18l-29-.18Zm1.18,0,28.41-.18-.18.18-.39-63,1.09.24c-9.46,20.93-19,41.54-28.68,62.22Z" transform="translate(-543.75 -227.3)"/><path class="cls-1" d="M782.25,688C765.4,667.12,748.53,646,732,624.9l-.83-1h1.34l79,.35H812l-.19.43L782.5,687.5Zm.49-1.06,28.48-62.6.28.43-79,.35.51-1c16.67,20.77,33,41.47,49.37,62.41Z" transform="translate(-543.75 -227.3)"/><path class="cls-1" d="M782.83,687.91l-25.16-12.59c-8.58-4.34-17.08-8.79-25.48-13.22l-.37-.19v-.41l.22-37v-1.33l.82,1L757.73,656q12.38,15.86,24.77,31.5Zm-.64-.8Q769.75,671.48,757.27,656l-25.13-31.21.82-.29.22,37-.37-.6c8.27,4.24,16.43,8.45,24.52,12.78l24.4,13.18Z" transform="translate(-543.75 -227.3)"/><path class="cls-1" d="M783,687.76c-4.21,1.43-8.48,2.89-12.8,4.3-4.49,1.47-9,2.86-13.46,4.19l-.55.16-.32-.46-23.73-34.19-1.06-1.52,1.64.86C749.45,670,766,678.87,782.5,687.5Zm-1-.5c-16.67-8.62-33.3-17-49.74-25.36l.58-.66,24.27,33.81-.87-.3c4.21-1.33,8.36-2.61,12.54-3.81s8.41-2.34,12.69-3.53Z" transform="translate(-543.75 -227.3)"/><path class="cls-1" d="M757.12,695.32l.3.57c3.69,7.06,7.23,14.07,10.72,21.29h-1.28l15.35-29.82.38.44Zm-1.24.38.62-.2,25.91-8.3.7-.23-.32.67-14.65,30.18-.62,1.27-.66-1.27C763.12,710.57,759.43,703.11,755.88,695.7Z" transform="translate(-543.75 -227.3)"/><path class="cls-1" d="M774.29,624.5c-.25-25-.38-50.09-.41-75v-2.68l1.17,2.41,36.62,75.19.13.27h-.3L775,624.5Zm1.42,0,35.79-.19-.17.27L774,549.77l1.17-.27c.3,24.86.5,49.55.58,74.29Z" transform="translate(-543.75 -227.3)"/><path class="cls-1" d="M774.5,550.06l-.46.33-22.49,16c-7.49,5.28-15,10.5-22.64,15.73L729,581l45.77,43.24-.65.28Zm0-1.13v.57l.39,75v.89l-.65-.61L728,582l-.64-.6.72-.5q11.6-8.16,23.36-16.27Z" transform="translate(-543.75 -227.3)"/><path class="cls-1" d="M728.88,581.86l.06.54c.78,7.06,1.59,14.05,2.31,21s1.35,14,2,21l-.71-.64,42,.28-.29.74C759.21,610.6,744.17,596.21,728.88,581.86Zm-.78-.73.4.37c15.24,14.2,30.75,28.35,46.29,42.69l.79.73H774.5l-42,.28h-.64l-.07-.64c-.72-7.27-1.42-14.62-2-22C729.16,595.39,728.64,588.23,728.1,581.13Z" transform="translate(-543.75 -227.3)"/><path class="cls-1" d="M728,581.82l1.74-29.93c.63-10.18,1.35-20.34,2.08-30.43l.08-1.11.91.62,41.84,28.25.41.28-.41.28L728.5,581.5Zm.91-.64,45.36-32v.56L732.15,522l1-.49c-.6,9.91-1.22,19.75-1.92,29.57s-1.46,19.64-2.23,29.52Z" transform="translate(-543.75 -227.3)"/><path class="cls-1" d="M774.24,549c12.33-.22,24.9-.37,37.26-.28h.82v.8l-.38,75v1.83l-.8-1.64L774.5,549.5Zm.52,1,37.12,74.29-.81.19-.38-75,.81.81c-12.11.09-24,0-36.15-.28Z" transform="translate(-543.75 -227.3)"/><path class="cls-1" d="M774.5,582.2h-.71c-15.09.1-30.12.1-45.29,0L729,581l45.71,43.3-.47.21Zm0-1.41v.71l.28,43v.65l-.48-.44L728,582l-1.29-1.19,1.77,0C743.76,580.69,759.16,580.69,774.5,580.79Z" transform="translate(-543.75 -227.3)"/><path class="cls-1" d="M773.92,549.5l18.29-33q9.36-16.74,18.79-33.29l1.09-1.92v2.2l-.37,66v.21h-.21l-37-.21Zm1.16,0,36.42-.21-.21.21-.37-66,1.08.28q-9.09,16.46-18.21,32.71L775.36,549Z" transform="translate(-543.75 -227.3)"/><path class="cls-1" d="M732.2,522c-1.1-4.4-2.23-8.85-3.29-13.35-1.11-4.67-2.13-9.35-3.11-14l-.14-.67.64-.18,28.08-7.72,1.07-.29-.59.92c-7.53,11.73-15.07,23.26-22.36,34.78Zm.57-.92c7.29-11.67,14.32-23.31,21.37-34.77l.48.63-27.92,8.28.5-.85c1,4.39,2,8.71,2.89,13s1.72,8.7,2.58,13.13Z" transform="translate(-543.75 -227.3)"/><path class="cls-1" d="M774.07,549.21l-.17-.51c-3.42-10.35-6.83-20.64-10.15-30.94s-6.56-20.65-9.8-31.08l1,.13-22.22,34.86-.09-.44C746.38,530.49,760.13,539.88,774.07,549.21Zm.88.59-.45-.3c-13.91-9.25-28-18.42-42.18-27.73l-.26-.17.17-.27L754,486.19l.66-1.06.38,1.19c3.43,10.57,6.86,21.22,10.2,31.92C768.55,528.78,771.75,539.32,775,549.8Z" transform="translate(-543.75 -227.3)"/><path class="cls-1" d="M774.23,550,764,518.65c-3.44-10.66-6.8-21.34-10.11-31.95l-.25-.83.86,0,57-2.71.69,0-.34.6L774.5,549.5Zm.53-1,36.41-65.72.35.57-57,3.29.6-.87c3.35,10.39,6.66,20.71,9.89,31.05l9.57,31.16Z" transform="translate(-543.75 -227.3)"/><path class="cls-1" d="M732.61,522l-37.78-47.27q-19-23.94-37.73-47.92l.76-.67,68.72,68.28,0,0v0l5.89,27Zm-.22-1-6-26.48,0,.06-69.28-67.72.76-.67q18.78,23.58,37.27,47.08l36.9,47.33Z" transform="translate(-543.75 -227.3)"/><path class="cls-1" d="M728.46,582l-13.39-48.89c-4.47-16.53-8.79-33.06-13.07-49.49l-.63-2.41,1.54,2,29.81,38.14.07.09v.11L730.6,551.6l-2.1,29.9Zm.07-1,1.87-29.6,1.81-29.92.07.2-30.19-37.86.91-.45c4.39,16.23,8.74,32.37,12.93,48.51L728.4,580.5Z" transform="translate(-543.75 -227.3)"/><path class="cls-1" d="M702.63,484l-.24.48-9.47,18.8c-3.17,6.2-6.42,12.36-9.73,18.57l-.11-.88,42.31,47.22-.78.42-11-42.45Zm-.27-1,.14.53,11.42,42.33,11.57,42.55.49,1.8-1.26-1.38L681.92,522l-.36-.4.25-.48c3.35-6.46,6.77-13,10.27-19.43Z" transform="translate(-543.75 -227.3)"/><path class="cls-1" d="M682.25,522l-12.75-47.4q-6.39-24-12.52-47.94l-.65-2.52,1.59,2.05,44.74,57.21.08.1-.06.11L682.5,521.5Zm.5-1,19.57-37.62,0,.21-45.26-56.78.94-.48q6.33,23.61,12.48,47.06l12.11,47.09Z" transform="translate(-543.75 -227.3)"/><path class="cls-1" d="M668.67,469.16l-.65.22c-18.07,6-36.09,11.94-54.3,17.78l.09-1.28,68.82,35.36-.41.33Zm-.35-1.32.18.66,14.28,52.93.17.62-.58-.29-69.18-34.64-1.5-.75,1.59-.53C631.52,479.75,649.94,473.73,668.32,467.84Z" transform="translate(-543.75 -227.3)"/><path class="cls-1" d="M613.18,486.93l-5.78-45.4q-2.86-23-5.5-46l-.13-1.18,1,.59,54.87,31.24.32.18-.22.29L613.5,486.5Zm.63-.86,43.43-59.76.1.47L602.21,396l.89-.59q2.83,22.6,5.5,45l5.15,45.06Z" transform="translate(-543.75 -227.3)"/><path class="cls-1" d="M613,486.67l21.72-30.17q11.12-15.3,22.33-30.34l.72-1,.3,1.17,10.76,42.07.08.3-.3.09c-18.48,5.94-36.88,11.75-55.1,17.69Zm1-.33c18.28-6,36.39-12.15,54.41-18.15l-.22.39-11.24-41.93,1,.19c-7.22,10-14.41,19.86-21.67,29.66l-22,29.41Z" transform="translate(-543.75 -227.3)"/><path class="cls-1" d="M613.56,487,590.9,467.86c-7.69-6.57-15.32-13.21-22.87-19.82l-.48-.41.35-.52,34.24-51.85.65-1,.14,1.17c3.55,30.5,7,60.87,10.57,91.05Zm-.13-1.06c-3.7-30.31-7.59-60.44-11.36-90.43l.79.19L569.1,447.89,569,447c7.45,6.39,14.82,12.75,22.13,19.19L613,485.62Z" transform="translate(-543.75 -227.3)"/><path class="cls-1" d="M568.18,448,558.5,426.7q-4.92-11-9.65-21.91l-.37-.84.9-.15,53.06-8.68.86-.14-.48.73L568.5,447.5Zm.63-1,33.37-51.74.38.59-52.94,9.32.53-1c3.17,7.06,6.29,14.06,9.35,21.09l9.08,21.2Z" transform="translate(-543.75 -227.3)"/><path class="cls-1" d="M602,395.58l-.51-.11c-9.6-2.18-19.15-4.29-28.62-6.5s-19-4.54-28.51-6.92l.68-.67,4.83,23-.45-.31,26.42-4.24Q588.89,397.79,602,395.58Zm1-.17-.52.09c-8.77,1.5-17.53,3-26.35,4.63l-26.58,4.76-.37.06-.08-.37-5.17-23-.2-.87.88.2c9.77,2.28,19.63,4.61,29.49,7.08C583.82,390.45,593.45,393,603,395.41Z" transform="translate(-543.75 -227.3)"/><polygon class="cls-1" points="286.3 256.37 310.28 188.04 310.95 186.13 311.24 188.12 321.75 259.2 310.26 188.27 311.22 188.36 288.19 257.02 286.3 256.37"/><polygon class="cls-1" points="309.8 187.88 332.12 120.99 333.88 115.72 333.41 121.25 321.75 259.2 332.09 121.14 333.38 121.4 311.7 188.51 309.8 187.88"/><path class="cls-1" d="M876.31,349.08h-.63c-8.48,0-16.75-.11-25.19-.39l.86-.89,3.58,67.67-.84-.1Zm.38-1.18-.19.6-21.59,67.13-.69,2.15-.15-2.25-4.4-67.63-.06-.91.92,0C859.21,347.15,868,347.49,876.69,347.9Z" transform="translate(-543.75 -227.3)"/><polygon class="cls-1" points="286.76 255.06 306.25 120.13 307.25 120.17 311 188.18 311.01 188.23 310.99 188.28 287.75 255.2 310.5 188.11 310.49 188.21 306.24 120.23 307.25 120.27 288.74 255.34 286.76 255.06"/><path class="cls-1" d="M849.34,348c3.4-23.56,6.95-47.17,10.58-70.57l.48-3.07.67,3,15.58,71.1,0,.19h-.19L850,348Zm1.32,0,25.84.33-.15.19-16.42-70.9,1.15,0c-3.33,23.38-6.75,46.55-10.32,69.76Z" transform="translate(-543.75 -227.3)"/><path class="cls-1" d="M860.4,278.15l-.71-.06c-1.86-.15-3.57-.32-5.35-.64l1.12-.9-4.48,71-1-.1Zm.2-1.38-.1.73L851,347.57l-1-.1,3.52-71,.06-1.06,1.06.16C856.64,275.86,858.67,276.31,860.6,276.77Z" transform="translate(-543.75 -227.3)"/><path class="cls-1" d="M861.17,277.41l.15.66c5.36,23.37,10.55,46.73,15.69,70.32l-1,.17-8.53-72.05.06,0Zm-1.34.19.67-.1,7-1.05h0v0L877,348.44l-1,.17C870.52,325.09,865.1,301.34,859.83,277.6Z" transform="translate(-543.75 -227.3)"/><path class="cls-1" d="M859.77,277.37l.19-.71c4.22-16.08,8.56-32.11,13-48.3l1,.34-19.44,47.82,0-.08Zm1.46.24-.73-.11-6-.94-.07,0,0-.06L873,228.3l1,.34C869.87,244.88,865.61,261.27,861.23,277.61Z" transform="translate(-543.75 -227.3)"/><path class="cls-1" d="M866.69,276.61l.1-.81c2-15.75,4-31.49,6.17-47.37l1.07.21-13.47,48.88-.07-.09Zm1.62-.23-.81.12-7,1.07h-.1l0-.1L873,228.36l1.07.21C872.21,244.42,870.31,260.4,868.31,276.38Z" transform="translate(-543.75 -227.3)"/><polygon class="cls-1" points="247.8 255.53 224.05 186.44 224 186.29 224.01 186.14 229.66 117.21 230.04 112.58 230.64 117.18 248.75 255.2 229.66 117.31 230.64 117.28 225.49 186.25 225.45 185.95 249.69 254.87 247.8 255.53"/><polygon class="cls-1" points="250.31 257.05 224.29 186.37 225.24 186.26 215.75 259.2 224.26 186.14 224.49 184.15 225.21 186.02 252.18 256.35 250.31 257.05"/><polygon class="cls-1" points="214.76 259.07 224.02 186.11 224.04 186.4 205.27 121.34 206.24 121.16 215.75 259.2 205.25 121.23 204.9 116.6 206.22 121.06 225.46 185.99 225.5 186.13 225.48 186.29 216.74 259.32 214.76 259.07"/><path class="cls-1" d="M749.62,347.92l.6-.12c7.78-1.51,15.36-2.92,23.14-4.14l-.71,1-9.59-69.06.87,0Zm-.23,1.18.11-.6,13.57-73.08.47-2.58.4,2.6,10.41,68.94.12.82-.83.14C765.63,346.75,757.41,348,749.39,349.1Z" transform="translate(-543.75 -227.3)"/><path class="cls-1" d="M763.41,274.84c2.35.14,4.85.35,7.22.72l.79.12,0,.78,2.53,68-1,.09L763.5,275.5Zm.17,1.21L774,344.43l-1,.09-3.47-68,.82.9a53.68,53.68,0,0,1-6.16-1.23Z" transform="translate(-543.75 -227.3)"/><path class="cls-1" d="M763.4,276l-.62.18a36.29,36.29,0,0,1-5.12,1.25l.79-.84L750,348.55l-1-.14Zm.22-1.17-.12.65L750,348.59l-1-.14,7.53-72.06.07-.71.72-.13A56.37,56.37,0,0,1,763.62,274.85Z" transform="translate(-543.75 -227.3)"/><path class="cls-1" d="M762.83,275.61l-.17-.66c-4-15.7-7.87-31.4-11.67-47.32l1-.19,5.54,49.05-.07-.05Zm1.34-.23-.67.12-6,1.06h-.06v-.06L751,227.56l1-.19C756.15,243.23,760.23,259.31,764.17,275.38Z" transform="translate(-543.75 -227.3)"/><path class="cls-1" d="M762.62,275.37c-4-15.95-7.85-31.9-11.65-47.74l1-.33,18.55,49.18,0,.1-.11,0-7-1.06Zm1.77.25,6.12.82-.07.08L751,227.7l1-.33c4.13,15.86,8.18,31.62,12.14,47.39Z" transform="translate(-543.75 -227.3)"/><path class="cls-1" d="M748.81,347.34c8.28-1.8,16.7-3.57,25-5.17l1.1-.21-.08,1.1-5.43,73-.18,2.33-.64-2.24L749,348Zm.38,1.3,20.21,67.24-.82.09,4.57-73,1,.89c-8.12,1.69-16.14,3.21-24.31,4.69Z" transform="translate(-543.75 -227.3)"/></svg>