<?xml version="1.0" encoding="utf-8"?>
<!-- Generator: Adobe Illustrator 23.0.1, SVG Export Plug-In . SVG Version: 6.00 Build 0)  -->
<svg version="1.1" id="Layer_1" xmlns="http://www.w3.org/2000/svg" xmlns:xlink="http://www.w3.org/1999/xlink" x="0px" y="0px"
	 viewBox="0 0 532 528" style="enable-background:new 0 0 532 528;" xml:space="preserve">
<style type="text/css">
	.st0{fill:none;stroke:#000000;stroke-miterlimit:10;}
	.st1{fill:#CD802E;}
	.st2{fill:#BF7F40;}
	.st3{fill:#AA8F7D;}
	.st4{fill:#815C3A;}
	.st5{fill:#F1C284;}
	.st6{fill:#CFB8A5;}
	.st7{fill:#DEB077;}
	.st8{fill:#CFA57C;}
	.st9{fill:#D1AE90;}
	.st10{fill:#604A3F;}
	.st11{fill:#1B0904;}
	.st12{fill:#684A35;}
	.st13{fill:#FAEEDA;}
	.st14{fill:#F2C283;}
	.st15{fill:#F2CE9E;}
	.st16{fill:#F6CC9A;}
	.st17{fill:#ECB478;}
	.st18{fill:#D18E47;}
	.st19{fill:#BA6C21;}
	.st20{fill:#CA7E2E;}
	.st21{fill:#E2A964;}
	.st22{fill:#CB914B;}
	.st23{fill:#E1AA66;}
	.st24{fill:#C0945A;}
	.st25{fill:#FFDFB9;}
	.st26{fill:#E9CDB1;}
	.st27{fill:#E0C5B0;}
	.st28{fill:#D3BAA3;}
	.st29{fill:#735F55;}
	.st30{fill:#D7CAC3;}
	.st31{fill:#D6C8C3;}
	.st32{fill:#8D827D;}
	.st33{fill:#846851;}
	.st34{fill:#C8AD9C;}
	.st35{fill:#958176;}
	.st36{fill:#E0C6B2;}
	.st37{fill:#B96D1F;}
	.st38{fill:#C27420;}
	.st39{fill:#A86A30;}
	.st40{fill:#AC7F54;}
	.st41{fill:#BB8A4C;}
	.st42{fill:#E1AB6D;}
	.st43{fill:#75502E;}
	.st44{fill:#5D3F21;}
	.st45{fill:#B07F4D;}
	.st46{fill:#B27D50;}
	.st47{fill:#77593C;}
	.st48{fill:#785234;}
	.st49{fill:#815C38;}
	.st50{fill:#614731;}
	.st51{fill:#79512B;}
	.st52{fill:#6D594C;}
	.st53{fill:#625044;}
	.st54{fill:#8C7A6B;}
	.st55{fill:#957863;}
	.st56{fill:#856E62;}
	.st57{fill:#5B4D45;}
	.st58{fill:#836F60;}
	.st59{fill:#9C8171;}
	.st60{fill:#7C614D;}
	.st61{fill:#8A705C;}
	.st62{fill:#3A1F16;}
	.st63{fill:#80746F;}
	.st64{fill:#4F4036;}
</style>
<g>
	<g>
		<g>
			<polygon class="st0" points="311,362 274,340 330,294 			"/>
			<polygon class="st1" points="274,340 286,405 311,362 			"/>
			<polygon class="st2" points="286,405 322,414 311,362 			"/>
			<polygon class="st3" points="310.5,362.5 340,335 329.5,288.5 			"/>
			<polygon class="st4" points="322,414 326,379 311,362 			"/>
			<polygon class="st5" points="322,414 344,402 326,379 			"/>
			<polygon class="st6" points="326,379 343,363 344,402 			"/>
			<polygon class="st7" points="330,294 359,312 340,335 			"/>
			<polygon class="st8" points="359,312 361,332 340,335 			"/>
			<polygon class="st9" points="359,312 392,294 361,332 			"/>
			<polygon class="st10" points="326,379 343,363 311,362 			"/>
			<polygon class="st11" points="311,362 349,352 340,335 			"/>
			<polygon class="st12" points="340,335 361,332 349,352 			"/>
			<polygon class="st13" points="286,405 302,441 322,414 			"/>
			<polygon class="st14" points="302,441 344,433 322,414 			"/>
			<polygon class="st15" points="322,414 344,402 344,433 			"/>
			<polygon class="st16" points="324.4,436.73 324,462 344,433 			"/>
			<polygon class="st17" points="302,441 324,462 324,437 			"/>
			<polygon class="st18" points="302,441 313,477 324,462 			"/>
			<polygon class="st19" points="274,340 266,359 286,405 			"/>
			<polygon class="st20" points="266,359 266,395 286,405 			"/>
			<polygon class="st21" points="302,441 266,437 286,405 			"/>
			<polygon class="st22" points="286,405 266,395 266,437 			"/>
			<polygon class="st23" points="266,437 286,450 302,441 			"/>
			<polygon class="st24" points="286,450 266,437 266,453 			"/>
			<polygon class="st25" points="286,450 302,441 304.5,450.5 			"/>
			<polygon class="st26" points="304.5,449.5 301,490 313,477 			"/>
			<polygon class="st27" points="301,490 309,490 313,477 			"/>
			<polygon class="st28" points="304,450 283,469 266,453 286,450 			"/>
			<polygon class="st29" points="284.06,469.8 267.06,478.8 267.06,453.8 			"/>
			<polygon class="st30" points="301,490 283,469 304.5,449.5 			"/>
			<polygon class="st31" points="301,490 281,501 288.87,475.85 			"/>
			<polygon class="st32" points="266,502 281,501 289,476 			"/>
			<polygon class="st33" points="281,501 266,528 266,502 			"/>
			<polygon class="st34" points="281,501 292,511 266,526.26 			"/>
			<polygon class="st35" points="292,511 301,490 281,501 			"/>
			<polygon class="st36" points="301,490 309,490 292,511 			"/>
			<polygon class="st37" points="274,340 279,294 330,294 			"/>
			<polygon class="st38" points="279,294 266,294 266,359 274,340 			"/>
			<polygon class="st39" points="279,294 294,273 330,294 			"/>
			<polygon class="st40" points="294,273 332,259 330,294 			"/>
			<polygon class="st41" points="332,259 357,284 330,294 			"/>
			<polygon class="st42" points="357,284 359,312 330,294 			"/>
			<polygon class="st43" points="294,273 308,257 332,259 			"/>
			<polygon class="st44" points="294,273 266,255 308,257 			"/>
			<polygon class="st45" points="279,294 274,269 266,294 			"/>
			<polygon class="st13" points="274,269 266,255 266,294 			"/>
			<polygon class="st46" points="266,255 294,273 279,294 274,269 			"/>
			<polygon class="st47" points="332,259 368,273 357,284 			"/>
			<polygon class="st48" points="368,273 359,312 357,284 			"/>
			<polygon class="st49" points="368,273 395,293 359,312 			"/>
			<polygon class="st50" points="368,273 427,195 350.94,266.33 			"/>
			<polygon class="st50" points="395,293 413,240 368,273 			"/>
			<polygon class="st47" points="368,273 427,195 413,240 			"/>
			<polygon class="st51" points="413,240 446,267 395,293 			"/>
			<polygon class="st52" points="413,240 459,211 427,195 			"/>
			<polygon class="st53" points="446,267 459,211 413,240 			"/>
			<polygon class="st54" points="459,211 468,171 427,195 			"/>
			<polygon class="st55" points="459,211 487,238 446,267 			"/>
			<polygon class="st56" points="459,211 498,187 487,238 			"/>
			<polygon class="st57" points="498,187 468,171 459,211 			"/>
			<polygon class="st58" points="498,187 506,153 468,171 			"/>
			<polygon class="st59" points="498,187 509,219 487,238 			"/>
			<polygon class="st60" points="498,187 532,153 506,153 			"/>
			<polygon class="st61" points="509,219 532,153 498,187 			"/>
			<polygon class="st62" points="311,362 349,352 343,363 			"/>
			<polygon class="st63" points="266,502 266,478 289,476 			"/>
			<polygon class="st64" points="289,476 283,469 267,478 			"/>
			<polygon class="st39" points="310.5,362.5 330.5,293.5 273.5,340.5 			"/>
		</g>
	</g>
	<g>
		<g>
			<polygon class="st0" points="221,362 258,340 202,294 			"/>
			<polygon class="st1" points="258,340 246,405 221,362 			"/>
			<polygon class="st2" points="246,405 210,414 221,362 			"/>
			<polygon class="st3" points="221.5,362.5 192,335 202.5,288.5 			"/>
			<polygon class="st4" points="210,414 206,379 221,362 			"/>
			<polygon class="st5" points="210,414 188,402 206,379 			"/>
			<polygon class="st6" points="206,379 189,363 188,402 			"/>
			<polygon class="st7" points="202,294 173,312 192,335 			"/>
			<polygon class="st8" points="173,312 171,332 192,335 			"/>
			<polygon class="st9" points="173,312 140,294 171,332 			"/>
			<polygon class="st10" points="206,379 189,363 221,362 			"/>
			<polygon class="st11" points="221,362 183,352 192,335 			"/>
			<polygon class="st12" points="192,335 171,332 183,352 			"/>
			<polygon class="st13" points="246,405 230,441 210,414 			"/>
			<polygon class="st14" points="230,441 188,433 210,414 			"/>
			<polygon class="st15" points="210,414 188,402 188,433 			"/>
			<polygon class="st16" points="207.6,436.73 208,462 188,433 			"/>
			<polygon class="st17" points="230,441 208,462 208,437 			"/>
			<polygon class="st18" points="230,441 219,477 208,462 			"/>
			<polygon class="st19" points="258,340 266,359 246,405 			"/>
			<polygon class="st20" points="266,359 266,395 246,405 			"/>
			<polygon class="st21" points="230,441 266,437 246,405 			"/>
			<polygon class="st22" points="246,405 266,395 266,437 			"/>
			<polygon class="st23" points="266,437 246,450 230,441 			"/>
			<polygon class="st24" points="246,450 266,437 266,453 			"/>
			<polygon class="st25" points="246,450 230,441 227.5,450.5 			"/>
			<polygon class="st26" points="227.5,449.5 231,490 219,477 			"/>
			<polygon class="st27" points="231,490 223,490 219,477 			"/>
			<polygon class="st28" points="228,450 249,469 266,453 246,450 			"/>
			<polygon class="st29" points="247.94,469.8 264.94,478.8 265.5,453.5 			"/>
			<polygon class="st30" points="231,490 249,469 227.5,449.5 			"/>
			<polygon class="st31" points="231,490 251,501 243.13,475.85 			"/>
			<polygon class="st32" points="266,502 251,501 243,476 			"/>
			<polygon class="st33" points="251,501 266,528 266,502 			"/>
			<polygon class="st34" points="251,501 240,511 266,526.26 			"/>
			<polygon class="st35" points="240,511 231,490 251,501 			"/>
			<polygon class="st36" points="231,490 223,490 240,511 			"/>
			<polygon class="st37" points="258,340 253,294 202,294 			"/>
			<polygon class="st38" points="253,294 266,294 266,359 258,340 			"/>
			<polygon class="st39" points="253,294 238,273 202,294 			"/>
			<polygon class="st40" points="238,273 200,259 202,294 			"/>
			<polygon class="st41" points="200,259 175,284 202,294 			"/>
			<polygon class="st42" points="175,284 173,312 202,294 			"/>
			<polygon class="st43" points="238,273 224,257 200,259 			"/>
			<polygon class="st44" points="238,273 266,255 224,257 			"/>
			<polygon class="st45" points="253,294 258,269 266,294 			"/>
			<polygon class="st13" points="258,269 266,255 266,294 			"/>
			<polygon class="st46" points="266,255 238,273 253,294 258,269 			"/>
			<polygon class="st47" points="200,259 164,273 175,284 			"/>
			<polygon class="st48" points="164,273 173,312 175,284 			"/>
			<polygon class="st49" points="164,273 137,293 173,312 			"/>
			<polygon class="st50" points="164,273 105,195 181.06,266.33 			"/>
			<polygon class="st50" points="137,293 119,240 164,273 			"/>
			<polygon class="st47" points="164,273 105,195 119,240 			"/>
			<polygon class="st51" points="119,240 86,267 137,293 			"/>
			<polygon class="st52" points="119,240 73,211 105,195 			"/>
			<polygon class="st53" points="86,267 73,211 119,240 			"/>
			<polygon class="st54" points="73,211 64,171 105,195 			"/>
			<polygon class="st55" points="73,211 45,238 86,267 			"/>
			<polygon class="st56" points="73,211 34,187 45,238 			"/>
			<polygon class="st57" points="34,187 64,171 73,211 			"/>
			<polygon class="st58" points="34,187 26,153 64,171 			"/>
			<polygon class="st59" points="34,187 23,219 45,238 			"/>
			<polygon class="st60" points="34,187 0,153 26,153 			"/>
			<polygon class="st61" points="23,219 0,153 34,187 			"/>
			<polygon class="st62" points="221,362 183,352 189,363 			"/>
			<polygon class="st63" points="266,502 266,478 243,476 			"/>
			<polygon class="st64" points="243,476 249,469 265,478 			"/>
			<polygon class="st39" points="221.5,362.5 201.5,293.5 258.5,340.5 			"/>
		</g>
	</g>
</g>
<polygon class="st11" points="287.5,256.5 311,188 322,259 "/>
<polygon class="st50" points="311,188 333,121 322,259 "/>
<polygon class="st11" points="333,121 307.01,120.35 311,188 "/>
<polygon class="st62" points="311,188 288,255 307,120 "/>
<polygon class="st11" points="306.5,120.5 317,50 333,121 "/>
<polygon class="st62" points="317,50 311,49 307,120 "/>
<polygon class="st50" points="317,50 333,121 324,49 "/>
<polygon class="st62" points="317,50 330,1 311,49 "/>
<polygon class="st50" points="324,49 330,1 317,50 "/>
<polygon class="st50" points="225,186 230.4,117.05 249,255 "/>
<polygon class="st11" points="251.5,256.5 225,186 216,259 "/>
<polygon class="st62" points="225,186 206,121 216,259 "/>
<polygon class="st11" points="206,121 230,117 220,48 "/>
<polygon class="st50" points="220,48 227,49 230,117 "/>
<polygon class="st62" points="220,48 214,49 206,121 "/>
<polygon class="st62" points="220,48 208,0 214,49 "/>
<polygon class="st50" points="220,48 208,0 227,49 "/>
<polygon class="st11" points="205.5,120.5 230.5,115.5 225.5,188.5 "/>
</svg>
